<?xml version="1.0" standalone="no"?>
<!DOCTYPE svg PUBLIC "-//W3C//DTD SVG 1.1//EN" "http://www.w3.org/Graphics/SVG/1.1/DTD/svg11.dtd" >
<svg xmlns="http://www.w3.org/2000/svg">
<metadata></metadata>
<defs>
<font id="unskinnybopmedium" horiz-adv-x="659" >
<font-face units-per-em="2048" ascent="1638" descent="-410" />
<missing-glyph horiz-adv-x="614" />
<glyph horiz-adv-x="2048" />
<glyph horiz-adv-x="2048" />
<glyph unicode="&#xd;" horiz-adv-x="681" />
<glyph unicode=" "  horiz-adv-x="614" />
<glyph unicode="&#x09;" horiz-adv-x="614" />
<glyph unicode="&#xa0;" horiz-adv-x="614" />
<glyph unicode="!" horiz-adv-x="520" d="M227 82q0 31 31 31t31 -31t-31 -31t-31 31zM233 1516q0 31 31 31t31 -31q0 -178 10 -536.5t10 -537.5q0 -31 -30.5 -30.5t-30.5 30.5q0 178 -10.5 536.5t-10.5 537.5z" />
<glyph unicode="&#x22;" horiz-adv-x="761" d="M201 1294q0 47 4 116t12 122q2 12 12.5 20.5t22.5 6t20.5 -12.5t6.5 -22q-8 -53 -12.5 -119t-4.5 -112t1 -127t1 -115q0 -31 -30.5 -31t-30.5 31q0 33 -1 114.5t-1 128.5zM492 1378.5q0 71.5 4 134.5q0 12 10 20.5t22.5 8.5t20.5 -10.5t8 -22.5q-6 0 -4 -211l4 -213 q0 -12 -9 -21t-22 -9q-31 0 -30 30q0 47 -2 134.5t-2 159z" />
<glyph unicode="#" horiz-adv-x="1226" d="M20 573.5q0 30.5 31 30.5q90 0 201 2q27 141 39 225q10 57 18 125q-129 -4 -233 -4q-31 0 -31 31t31 31q106 0 241 4l21 164q29 219 55 352q4 12 14.5 19.5t22.5 4t19.5 -13.5t5.5 -22q-25 -113 -56 -346l-20 -156q51 0 155.5 4t155.5 4q45 311 72 520q2 12 12 20.5 t22.5 6.5t20.5 -12.5t6 -22.5q-27 -207 -69 -510q133 4 237 4q31 0 31 -30.5t-31 -30.5q-109 0 -248 -4l-51 -351q123 2 221 3q31 0 31 -31t-31 -31q-100 0 -229 -2q-37 -254 -59 -442q-2 -12 -12.5 -20.5t-22.5 -6.5t-20.5 12.5t-6.5 22.5q23 184 60 432q-45 -2 -153 -5 t-167 -3q-53 -297 -72 -455q-2 -12 -12 -20.5t-22.5 -6t-20.5 12.5t-6 22q20 156 72 445q-104 -2 -191 -2q-31 0 -31 30.5zM315 608q55 0 161 3t155 5l51 351q-49 0 -154 -4l-157 -7q-8 -72 -19 -133z" />
<glyph unicode="$" horiz-adv-x="1157" d="M86 348q-4 12 1 23.5t17.5 15.5t23.5 -1t15 -17q37 -111 131.5 -170.5t217.5 -67.5q8 152 2 600q0 43 -2 86q-53 20 -85 33.5t-79 39t-75 53.5t-53.5 70t-35.5 93q-35 176 51 293q76 102 223 137l33 8q-2 68 -6 135q0 14 8 23.5t21.5 9.5t22.5 -8t9 -21q2 -68 6 -133 q117 6 221.5 -31.5t155.5 -115.5q18 -25 -7.5 -42.5t-41.5 9.5q-43 59 -133 92t-192 27q12 -311 18 -627q61 -25 102 -43t94.5 -50t91.5 -77t64 -102q57 -131 47 -242q-12 -123 -128.5 -197.5t-268.5 -80.5h-6q-6 -70 -14 -133q-2 -12 -12.5 -20.5t-23 -6.5t-20.5 12t-6 23 q8 59 14 125q-139 10 -248.5 79.5t-152.5 198.5zM225 1118q18 -90 82 -139t185 -94q-6 299 -19 596l-20 -4q-125 -29 -187 -113q-72 -96 -41 -246zM553 131q135 6 231.5 68.5t106.5 156t-43 209.5q-39 86 -109.5 136.5t-185.5 93.5q2 -31 2 -64q6 -446 -2 -600z" />
<glyph unicode="%" horiz-adv-x="1716" d="M84 1247q8 113 77.5 205t178.5 104q8 8 20 9q160 0 253.5 -94.5t96.5 -223.5t-85 -223t-248 -94q-154 0 -234 100q-70 88 -59 217zM145.5 1241.5q-8.5 -104.5 47.5 -172.5q59 -78 184 -78q131 0 202.5 76t67.5 180q-2 98 -69.5 172t-190.5 84q-6 -6 -16 -6 q-90 0 -153.5 -75.5t-72 -180zM322 76q39 76 87 155.5t118.5 184t95.5 145.5l159 246l181 283q57 90 141 243.5t139 282.5q12 29 41 16.5t16 -41.5q-57 -131 -142 -286.5t-142 -247.5l-180 -283l-160 -246l-98 -147q-70 -104 -117 -181t-82 -153q-14 -27 -41.5 -13.5 t-15.5 42.5zM866 254q-35 109 19 238q49 119 153.5 190.5t227.5 40.5q14 10 30 4q133 -51 186.5 -176t16.5 -250q-37 -131 -156.5 -197.5t-295.5 -15.5q-139 39 -181 166zM926 272q29 -96 137 -127q152 -41 249 12.5t128 159.5q29 100 -9 197.5t-135 144.5q-12 -8 -26 -2 q-100 33 -192.5 -24.5t-135.5 -165.5q-45 -106 -16 -195z" />
<glyph unicode="&#x26;" horiz-adv-x="1460" d="M164 385q0 53 13 105.5t46 104.5t59.5 89t82.5 90l77 80l88 80l-41 70q-115 217 -90 364q14 78 73.5 127t137.5 57.5t146.5 -26.5t97.5 -113q51 -133 -43 -276q-55 -84 -201 -215q61 -94 140 -185q33 -41 127 -137l120 -123l21 35q29 53 91 149.5t89 143.5q14 27 41 12.5 t12 -41.5q-27 -51 -92 -149q-59 -92 -88 -144l-29 -53q168 -182 203 -321q2 -12 -4 -23.5t-18.5 -14.5t-23.5 3t-15 18q-29 121 -174 283q-102 -160 -232 -244q-125 -82 -311 -65q-178 14 -268 155q-35 55 -35 164zM225 385q0 -90 27 -131q74 -115 219 -127 q168 -14 283.5 62.5t212.5 232.5l-133 135q-100 102 -134 139q-74 93 -135 185l-131 -119q-45 -45 -101.5 -112.5t-82 -132t-25.5 -132.5zM461 1356q-23 -125 84 -324q15 -26 33 -57q131 121 182 194q78 117 37 224q-20 53 -70.5 78.5t-110 19.5t-102.5 -42t-53 -93z" />
<glyph unicode="'" horiz-adv-x="454" d="M182 1559q0 31 31 31t31 -31q0 -80 3 -238t3 -238q0 -31 -31 -30.5t-31 30.5q0 80 -3 238t-3 238z" />
<glyph unicode="(" horiz-adv-x="679" d="M87 586.5q-32 316.5 81 615.5q102 272 233 406q23 20 44 -1t1 -44q-123 -123 -221 -381q-106 -287 -76.5 -589t191.5 -562q20 -33 68.5 -84t58.5 -64q20 -25 -3.5 -44t-41.5 3q-2 2 -57.5 61.5t-77.5 94.5q-168 272 -200 588.5z" />
<glyph unicode=")" horiz-adv-x="661" d="M104 -250q20 47 66 121q51 82 68 115q262 526 88 1181q-43 156 -72 228q-55 137 -123 174q-27 14 -12.5 40.5t41.5 12.5q86 -47 151 -203q29 -76 72 -235q182 -678 -92 -1227q-16 -35 -68 -119q-45 -72 -61 -112q-12 -29 -41 -17t-17 41z" />
<glyph unicode="*" horiz-adv-x="1011" d="M0 1257.5q2 12.5 13.5 19.5t23.5 5q41 -8 91 -23.5t85 -29.5l90 -35l82 -33q0 53 1 171t1 179q0 31 31 31t31 -31q0 -61 -1.5 -180t-1.5 -172q213 100 324 121q14 2 24.5 -5t12.5 -20.5t-5 -23.5t-20 -12q-104 -18 -315 -119l86 -109q68 -90 119 -139q20 -23 -1.5 -44.5 t-43.5 -0.5q-47 49 -123 147.5t-96 122.5q-23 -29 -76 -104q-68 -98 -113 -148q-20 -23 -42.5 -2t-2.5 43q37 43 109 144l69 98l-82 31l-84 35q-31 12 -75 26q-45 14 -86 21q-12 2 -19.5 13t-5.5 23.5z" />
<glyph unicode="+" horiz-adv-x="1353" d="M112 696.5q0 30.5 31 30.5h234h233q-8 399 -8 459q0 31 31 31t31 -31q0 -59 8 -459q252 -4 448 -16q12 0 20.5 -10.5t8.5 -22.5t-10.5 -20.5t-22.5 -8.5q-195 12 -444 17q2 -80 2 -146q0 -16 3 -83.5t0 -116t-11 -89.5q-4 -12 -14.5 -19t-23 -4t-19.5 13t-5 23 q10 39 11 81t-1 106.5t-2 88.5q0 66 -2 146h-233h-234q-31 0 -31 30.5z" />
<glyph unicode="," horiz-adv-x="493" d="M121 -150q27 72 55 209q35 164 53 222q4 12 15.5 17t24 1t17.5 -15.5t1 -23.5q-20 -63 -51 -213q-31 -147 -58 -217q-4 -12 -15 -17.5t-23.5 -1t-17.5 15.5t-1 23z" />
<glyph unicode="-" d="M28 596q0 31 31 31h365q31 0 31 -31t-31 -31h-365q-31 0 -31 31z" />
<glyph unicode="." horiz-adv-x="468" d="M203 125q0 31 30.5 31t30.5 -31t-30.5 -31t-30.5 31z" />
<glyph unicode="/" horiz-adv-x="944" d="M2 82q53 152 160 367q18 41 55 112l66 131l53 111q14 29 59 127l64 135l55 123l61 135l52 125l53 135q4 12 15.5 17.5t23.5 1t17 -15.5t1 -23l-53 -138l-53 -122q-20 -53 -62 -140l-55 -123l-63 -139l-58 -123l-53 -112l-68 -134l-55 -110q-104 -213 -158 -361 q-4 -12 -15 -17t-23.5 -1t-17.5 15.5t-1 23.5z" />
<glyph unicode="0" horiz-adv-x="1153" d="M106 582q-25 260 13 452q4 19 24 25q39 168 121 295q135 207 322 192q127 -10 209 -112q90 -113 126.5 -290t27.5 -334t-42 -310q-18 -84 -54 -161t-90 -145.5t-134 -107.5t-174 -33q-131 10 -213 101q-106 117 -136 428zM168 588q27 -291 119 -393q66 -72 172 -80 q76 -6 143.5 26.5t114.5 91t79.5 129t49.5 150.5q33 150 41 302.5t-26 316t-116 266.5q-66 80 -163 88q-152 12 -267 -164q-94 -145 -122 -330q-5 -18 -21 -24q-23 -174 -4 -379z" />
<glyph unicode="1" horiz-adv-x="817" d="M245.5 1210.5q-18.5 24.5 6.5 42.5q53 39 135 128t105 112l2 4q6 8 8 10q23 29 51 17q12 -6 20 -19q4 -8 7 -18q4 -14 8 -41q4 -39 6 -109q2 -41 2 -180q0 -109 3 -326t3 -325q0 -33 -3 -123t-1 -150.5t14 -115.5q2 -12 -5 -22.5t-19.5 -13.5t-22.5 4t-14 19 q-10 59 -13 124t0 158t3 120q0 109 -3 326t-3 325q0 137 -3 178q-2 66 -6 105v2q-25 -25 -69.5 -76t-85.5 -92t-82 -70q-25 -18 -43.5 6.5z" />
<glyph unicode="2" horiz-adv-x="1114" d="M63 72l3 4q0 2 2 4q0 2 2 4q0 2 2 2l2 4l10 10l31 33l100 105l102 110q49 51 58 62q209 260 268 346q166 229 197 364q33 127 -41 226q-72 98 -197 127q-129 31 -246 -31q-117 -63 -168 -225q-4 -10 -15 -16.5t-22.5 -2.5t-17.5 15.5t-2 23.5q29 94 84 162.5t120.5 100.5 t139.5 42t141 -10q147 -35 234.5 -152.5t50.5 -275.5q-37 -145 -207 -385q-63 -88 -270 -346q-10 -12 -62 -68l-104 -110l-98 -103v-2h18q426 8 647 8q31 0 31 -30.5t-31 -30.5q-221 0 -647 -8h-47q-16 0 -27 2q-8 2 -14 2q-14 4 -20 14q-4 6 -5.5 13.5t-1.5 11.5z" />
<glyph unicode="3" horiz-adv-x="1146" d="M123 297q-14 27 12.5 41t40.5 -12q61 -109 177 -164.5t235 -44.5q123 12 204.5 90t88.5 219q6 131 -50.5 233.5t-173.5 139.5q-4 2 -34 4q-27 4 -70 8q-31 2 -66 6l-20 2h-6h-2h-2h-2q-2 0 -2 2q-14 4 -21 19q-8 18 6 34q8 8 19 11q8 2 24 4q39 2 60 6q94 18 164 80 q74 66 99 166t-7 196q-35 100 -105.5 144.5t-163.5 36.5q-88 -8 -172 -59.5t-133 -127.5q-18 -27 -43.5 -9.5t-9.5 42.5q57 88 153.5 146.5t198.5 68.5q113 10 203 -45q88 -55 129 -176q39 -113 10 -232q-31 -119 -119 -196q-47 -43 -102 -68q25 -2 35 -6q139 -45 207 -164 q66 -121 57 -270q-8 -164 -106.5 -258t-241.5 -109q-137 -12 -268 51.5t-203 190.5z" />
<glyph unicode="4" horiz-adv-x="1177" d="M92 459q-10 27 14 49q8 4 11 8h2q59 76 125 186q12 18 47 80l90 164l96 170l139 248l50 82q10 16 18 27q2 4 6 8q4 6 10 10q29 18 54 2q16 -12 20 -35l4 -39q2 -74 -2 -212t-4 -189q0 -84 1 -264.5t1 -274.5q100 -2 168 -2q31 0 31 -30.5t-31 -30.5q-68 0 -168 2 q0 -190 -8 -342q0 -12 -10.5 -20.5t-22.5 -8.5t-20 10.5t-8 22.5q8 150 8 340q-154 4 -232 4h-41h-69h-82q-74 0 -117 4q-27 2 -41 4q-10 2 -16 4q-16 8 -23 23zM176 489q41 -4 113 -4h84h69h39q78 0 232 -4q0 92 -1 271.5t-1 265.5q0 53 4 186t2 207l-47 -78l-140 -246 l-96 -174l-92 -163q-35 -59 -45 -80q-64 -107 -121 -181z" />
<glyph unicode="5" horiz-adv-x="1177" d="M113 213q-14 27 12.5 41t40.5 -12q39 -66 127 -101t201 -32q111 2 208 36.5t146 90.5q68 78 63 225q-6 213 -88 317q-88 111 -291 140q-37 6 -174 -11q-68 -8 -90 -10q-20 -2 -30 0h-15q-16 4 -24 16q-10 18 -4 41q2 6 4 11v4q10 90 10 202q0 14 -4 68q0 6 -3 44t-5 60 q-6 68 -7 99v37q2 23 9 32q16 23 45 17q10 -2 12 -2q100 0 300 -8.5t300 -8.5q31 0 31 -30.5t-31 -30.5q-100 0 -300 8t-300 8h-4v-20q0 -35 6 -96q2 -20 5 -58.5t3 -44.5q4 -55 4 -74q0 -117 -10 -210v-3h4q20 2 88 11q145 16 189 10q227 -33 329 -162q96 -121 103 -356 q4 -170 -80 -266q-59 -68 -169 -107t-228 -41q-125 -2 -229.5 39t-153.5 127z" />
<glyph unicode="6" horiz-adv-x="1206" d="M92 440q-6 119 33 244q37 123 227 451q86 152 158 256q84 121 127 151q27 18 44.5 -7.5t-7.5 -41.5q-37 -25 -113 -137q-72 -102 -158 -252q-76 -133 -139 -256q162 119 328 106q180 -16 301 -172q74 -94 98 -209q27 -117 -14 -237.5t-154 -202.5q-119 -86 -327 -70 q-172 12 -283 108.5t-121 268.5zM154 444q8 -147 101 -227t245 -92q188 -14 286 57q96 70 132 173.5t14.5 205t-86.5 184.5q-106 133 -260 148q-176 14 -348 -148q-11 -10 -27 -8q-20 -45 -29 -69q-35 -117 -28 -224z" />
<glyph unicode="7" horiz-adv-x="1126" d="M129 1481.5q0 13.5 8.5 22.5t20.5 9q121 4 331 -10q242 -16 326 -16q4 0 16 2q16 2 25 2q43 4 62 -25q6 -10 4 -22q0 -2 -2 -8q-2 -4 -5 -15l-18 -37q-18 -41 -53 -108l-94 -178q-195 -389 -445 -963q-12 -29 -40.5 -16.5t-16.5 41.5q252 573 448 966l92 177l54 108 l10 19q-2 0 -6 -1.5t-6 -1.5q-14 -2 -25 -2q-94 0 -330 17q-207 14 -323 10q-14 0 -23.5 8t-9.5 21.5z" />
<glyph unicode="8" horiz-adv-x="1200" d="M84 494q18 133 98 236.5t201 131.5q-104 59 -145 160q-43 100 -23 209q25 135 131 227q106 90 254 80q166 -12 252 -119.5t72 -247.5q-8 -102 -71 -188t-169 -129q96 -33 166 -93.5t102.5 -131t42 -151.5t-13.5 -156q-43 -166 -186 -265q-145 -100 -353 -67 q-135 20 -225 102q-88 82 -117.5 185.5t-15.5 216.5zM145 483q-14 -98 12.5 -188t102.5 -157.5t191 -86.5q184 -29 309 56.5t161.5 228.5t-30 275t-234.5 188q-23 8 -104 18q-13 -16 -33 -14q-147 27 -250.5 -68.5t-124.5 -251.5zM274 1221q-20 -113 36.5 -208t193.5 -136 l8 4q8 4 18 2l2 -2q147 12 233.5 98t96.5 199q12 115 -58.5 201.5t-207.5 97.5q-123 8 -211 -68t-111 -188z" />
<glyph unicode="9" horiz-adv-x="1118" d="M100 1075q4 209 148 365q74 82 186.5 110.5t210.5 -2.5q111 -27 186 -106q74 -82 82 -203q10 -137 -28 -293q2 -12 -6 -22q-29 -109 -76 -221.5t-116 -236.5t-109 -192l-123 -194q-16 -27 -43 -10.5t-11 43.5l144 229q53 86 126.5 228.5t114.5 260.5q-78 -55 -176 -80.5 t-192 -17.5q-139 14 -230 103q-92 86 -88 239zM162 1075q-2 -127 70.5 -197.5t191.5 -82.5q113 -10 224.5 31.5t174.5 123.5q37 154 29 285q-6 98 -67.5 164.5t-153.5 89.5q-88 25 -182.5 1t-155.5 -91q-127 -139 -131 -324z" />
<glyph unicode=":" horiz-adv-x="503" d="M217 129q0 31 31 31t31 -31t-31 -31t-31 31zM238 958.5q0 30.5 30.5 30.5t30.5 -30.5t-30.5 -30.5t-30.5 30.5z" />
<glyph unicode=";" horiz-adv-x="503" d="M139 -141q78 170 99 393q2 14 11 22.5t22.5 6.5t21.5 -11.5t6 -21.5q-23 -240 -102 -414q-14 -29 -42 -15.5t-16 40.5zM225 958.5q0 30.5 31 30.5t31 -30.5t-31 -30.5t-31 30.5z" />
<glyph unicode="&#x3c;" horiz-adv-x="1361" d="M188 745q2 10 11 17q2 2 5 4t9 4l25 10l73 27q119 39 144 51q418 182 655 322q27 14 42.5 -12t-9.5 -42q-244 -139 -664 -325q-29 -12 -149 -53l-45 -17l22 -10q117 -51 129 -57q436 -223 658 -385q25 -18 6 -43t-43 -7q-217 158 -649 381q-8 4 -125 56q-39 16 -60 26 q-12 8 -20 15q-6 4 -10 10q-10 14 -5 28z" />
<glyph unicode="=" horiz-adv-x="1386" d="M170 480.5q-2 13.5 6.5 22.5t20.5 11q129 12 267 15t330.5 -1t264.5 -4q31 0 31 -30.5t-31 -30.5q-76 0 -266.5 4t-326.5 2t-261 -16q-14 -2 -23.5 6t-11.5 21.5zM183 878.5q-3 12.5 4.5 22.5t19.5 14q57 12 133 17.5t131 3.5t143 -6t123 -6q76 -2 137.5 0t140.5 -1 t140 -12q12 -2 20.5 -12t6.5 -22.5t-12.5 -20.5t-22.5 -6q-61 10 -135 12t-135.5 0t-139.5 0l-127 6q-88 4 -140 6.5t-123 -2t-128 -18.5q-12 -2 -22.5 5t-13.5 19.5z" />
<glyph unicode="&#x3e;" horiz-adv-x="1392" d="M153.5 1193.5q12.5 28.5 41.5 16.5q373 -160 759 -350q45 -20 125 -65l66 -37q14 -10 22 -15q6 -4 9.5 -7t5.5 -7q8 -10 6 -24q-4 -14 -21 -31q-12 -10 -30 -23q-29 -20 -80 -47q-33 -18 -81 -42.5t-54 -26.5l-668 -363q-27 -14 -41 12.5t12 40.5l668 363q4 4 52 27.5 t81 41.5q49 27 78 45l6 5q-23 14 -59 34l-125 66q-383 186 -756 346q-29 12 -16.5 40.5z" />
<glyph unicode="?" horiz-adv-x="1011" d="M43 1210l10 35q12 37 17 45l14 41q12 31 20 45l23 37q12 25 27.5 41t33.5 31q78 63 183.5 80.5t197.5 -13.5q100 -31 166 -106.5t72 -188.5q6 -102 -127 -264l-92 -104q-70 -80 -94 -115q-66 -98 -84 -246q-2 -12 -12.5 -20t-23 -6t-20.5 12t-6 23q23 160 96 270 q25 37 99 123l90 102q117 143 112 221q-6 92 -58 153.5t-136 88.5q-78 25 -168 9.5t-158 -68.5q-10 -8 -19 -18.5t-18 -24.5l-16 -23q-8 -10 -15 -28.5t-12.5 -27.5t-12.5 -30.5t-10 -30t-11 -32.5l-11 -31q-4 -12 -15 -17.5t-23.5 -1t-17.5 15.5t-1 23zM414 96.5 q0 30.5 30.5 30.5t30.5 -30.5t-30.5 -30.5t-30.5 30.5z" />
<glyph unicode="@" horiz-adv-x="1732" d="M102 557q-23 127 6 281.5t91 277.5q86 172 222 297t294 174q111 31 218 25t218 -65.5t203 -168.5q184 -215 174 -413q-4 -86 -37 -193q-31 -106 -84 -194q-141 -233 -346 -191q-49 10 -80 29.5t-51 64.5q-6 14 -10 29q-88 -90 -203 -103.5t-197 46.5q-68 47 -97.5 123.5 t-7 186t102.5 226.5q45 70 138.5 132.5t183.5 84.5q111 27 176 -20q43 -31 59 -88q18 39 29 67q4 10 16.5 15.5t23.5 1.5t16 -16.5t1 -24.5q-14 -35 -69 -152q-51 -104 -76 -172q-49 -129 -47 -217q8 -14 2 -29q2 -37 16 -65q10 -27 29.5 -38t56.5 -19q164 -35 281 159 q49 82 78.5 181.5t33.5 179.5q8 174 -157 368q-86 100 -186.5 154.5t-196 59.5t-195.5 -23q-143 -43 -270 -160t-209 -281q-57 -115 -84 -259t-4 -259q20 -119 123 -217q100 -100 250 -166q143 -63 294 -80q150 -16 259 19q154 51 268 199q18 25 42.5 6t6.5 -43 q-127 -164 -297 -219q-127 -39 -287 -23q-158 18 -311 86q-162 72 -272 180q-113 109 -138 246zM476 750q-17 -95 6.5 -153t72.5 -93q49 -33 109.5 -38t127 25.5t115.5 96.5q-4 102 51 252q25 63 64 147v10q6 104 -41 140q-43 31 -127 10q-80 -20 -163 -76.5t-124 -114.5 q-74 -111 -91 -206z" />
<glyph unicode="A" horiz-adv-x="1449" d="M-8 115q12 51 34.5 101t59.5 120l49 90q127 256 324 743q23 55 82 181q37 76 55 110q14 23 25 37q6 8 12 14q11 11 25 13h5q11 0 21 -8q8 -6 14 -15q10 -12 23 -35q18 -37 45 -100l41 -100q23 -61 27 -70q47 -109 112 -289l105 -291l26 -63q14 -8 15 -27v-6l57 -133 q63 -143 94 -233q2 -5 2 -11q0 -7 -3 -13q-5 -12 -17.5 -15.5t-23.5 1.5t-15 17q-29 86 -92 229l-60 134q-138 1 -238 1q-200 0 -249 -3q-29 -2 -102.5 -8.5t-105.5 -6.5t-108 4l-43 -86q-12 -25 -49 -91t-56.5 -112.5t-29.5 -91.5q-4 -12 -14 -19q-7 -5 -15 -5q-4 0 -8 1 q-12 3 -19 13q-5 8 -5 18v5zM258 543q42 -1 69 -1h24q30 1 94.5 6t97.5 7q63 3 248 3q93 0 217 -1l-15 39l-104 291q-63 176 -113 284q-2 8 -26 70l-39 100q-27 61 -45 95l-4 12l-11 -18q-23 -39 -55 -107q-55 -115 -80 -178q-156 -387 -258 -602z" />
<glyph unicode="B" horiz-adv-x="1284" d="M158 1514q0 8 6 16q8 10 22 12q7 4 13 4q52 8 121 7q54 0 120 -4q148 -11 267 -52q143 -47 230 -137q83 -86 83 -215v-12q-2 -66 -44 -132.5t-97 -103.5q-70 -45 -168 -70q90 -14 155 -43q180 -80 209 -262q6 -39 5 -72q0 -74 -27 -122q-102 -170 -373 -217 q-43 -6 -88 -11.5t-96.5 -6.5t-83.5 -1h-90h-74q-12 0 -21 8q-8 -4 -16 -4q-31 0 -31 31q0 115 3 346.5t3 345.5zM221 1487q27 -268 27 -641q6 4 12 4q23 2 49 2q33 4 71 4h26q98 4 160.5 10t142 26.5t137.5 57.5q43 27 76.5 81t35.5 102v9q0 206 -270 298q-161 53 -340 53 q-63 0 -127 -6zM242 154h6h76h88q31 0 81 1t93 5t84 12q242 41 329 188q20 32 20 89q0 29 -5 65q-23 147 -172 213q-102 45 -307 59q-100 8 -125 9q-12 0 -46.5 -1t-50.5 -3q-37 -4 -65 -15q0 -100 -3 -308t-3 -314z" />
<glyph unicode="C" horiz-adv-x="1554" d="M108 847q14 132 66.5 248.5t145 215t212.5 157.5q172 82 271 93q36 4 72 3q118 0 229 -40q172 -63 229 -197q12 -29 -16.5 -41t-40.5 17q-45 111 -195 163q-101 36 -207 36q-31 0 -63 -3q-90 -8 -254 -88q-131 -63 -226 -179t-133 -253q-33 -118 -33 -240q0 -19 1 -39 q6 -142 76.5 -270.5t193.5 -212.5q129 -86 408 -90q45 -1 88 -1h41q61 1 114.5 8t106.5 29.5t106 59.5q26 18 44 -6q8 -10 7 -20q0 -13 -14 -23q-59 -43 -120.5 -67.5t-119 -32.5t-123.5 -10q-22 -1 -43 -1q-44 0 -87 3q-299 6 -441 102q-115 76 -187 188q-74 113 -98 236 q-15 77 -15 158q0 48 5 97z" />
<glyph unicode="D" horiz-adv-x="1640" d="M166 1485q2 8 6 14q-2 2 -2 6q-2 12 6.5 22.5t20.5 12.5q77 10 160 10q190 0 411 -53q354 -84 512 -252q92 -98 135 -315q22 -109 22 -197q0 -83 -20 -147q-55 -193 -260 -338q-47 -35 -105.5 -60.5t-102.5 -43t-120.5 -30t-110.5 -19.5t-125 -10t-112 -3h-121h-108 q-16 0 -25 14q-8 -6 -18 -6q-31 0 -31 31q0 95 4 375q3 186 3 317q0 65 -1 117q0 30 -14 238q-8 121 -8 209q0 63 4 108zM227 1477q-5 -45 -5 -109q0 -82 8 -194q16 -199 16 -244q1 -51 1 -115q0 -129 -3 -315q-4 -278 -4 -359q6 2 12 2h96h107q25 0 99.5 2t105 6.5t95 11.5 t101.5 17l90 29q51 16 93 38.5t81 49.5q188 133 240 305q17 56 17 130q0 82 -21 186q-39 201 -121 286q-143 154 -481 234q-211 50 -395 50q-68 0 -132 -7v-4z" />
<glyph unicode="E" horiz-adv-x="1339" d="M150 182q-1 20 -1 47.5t1 61.5q2 39 6 104.5t4 79.5q0 248 22 553q4 42 4 112q0 47 -2 107v69q0 98 4 157q2 14 11.5 22t21.5 6q15 -2 23 -12q108 30 319 30q46 0 96 -1q258 -8 451 -41q12 -3 20 -13q6 -8 5 -18v-6q-2 -14 -12.5 -20.5t-24.5 -4.5q-180 33 -441 41 q-50 1 -95 1q-218 0 -316 -32q-1 -30 -1 -74.5t1 -101.5q1 -55 1 -99q0 -87 -3 -126l-13 -172q97 15 225 15h44q156 -3 290 -15t257 -31q12 -2 20 -12t6 -22.5t-12 -20.5t-23 -6q-125 20 -260 32q-134 13 -288 15h-27q-136 0 -234 -19q-8 -164 -8 -313q0 -14 -4 -80.5 t-6 -105.5q-1 -32 -1 -57.5t1 -45.5q2 -20 6 -32q0 -4 2 -7q8 -4 29 -8q33 -6 88 -8q96 -8 258 -8q56 -1 118 -1h63q97 1 174 2t95 1q31 0 31 -31t-31 -31q-18 0 -95 -1t-174 -2h-63q-62 0 -118 1q-164 0 -262 9q-59 4 -94 10q-45 8 -62 22q-14 12 -20 37q-4 16 -6 43z" />
<glyph unicode="F" horiz-adv-x="1214" d="M182 854q-8 401 -8 625q0 4 2 8q-2 6 -2 12q2 13 12 21q8 7 18 6h5q111 -12 237 -14h56q105 0 233 4q162 6 244 6q31 0 31 -31t-31 -31q-78 0 -230.5 -4t-278.5 -4t-234 8q0 -215 8 -602q40 -4 94 -4q36 0 80 2q113 3 173 3q30 0 46 -1q18 0 121.5 -6t159.5 -6 q31 0 30.5 -31t-30.5 -31q-55 0 -161 6.5t-124 6.5q-16 1 -45 1q-58 0 -168 -3q-44 -2 -80 -2q-55 0 -96 4q8 -444 8 -670q0 -31 -31 -31t-31 31q0 225 -8 682q-10 9 -10 22t10 23z" />
<glyph unicode="G" horiz-adv-x="1601" d="M93 749v5q0 126 46 248q47 126 122 231.5t181.5 185.5t225.5 115q57 18 162 22h39q86 0 175 -12q123 -16 201 -55q98 -51 115 -131q2 -12 -5 -23.5t-19.5 -13.5t-24 5.5t-13.5 19.5q-8 51 -79 88q-70 35 -183 51q-87 10 -166 10q-20 0 -39 -1q-96 -3 -147 -17 q-109 -33 -207 -108t-166.5 -172t-112.5 -214q-43 -114 -43 -228v-5q1 -117 42 -228q41 -102 118.5 -186t177 -137.5t211.5 -80.5q90 -21 183 -21q21 0 43 1q114 6 217 45q8 4 37.5 14.5t46.5 16.5q49 18 65 35q2 4 7 16q4 18 8 47q6 51 10 138q2 57 4 144t2 99q0 4 4 25 q2 23 4 37q2 23 2 35v2q-12 2 -32 2q-41 0 -115 -2q-35 -2 -82 -7l-78 -4q-31 -2 -43 -2q-31 0 -31 31t31 31q12 0 41 2l78 4l80 6q76 2 119 2q29 0 45 -4q10 -2 18 -4q12 -4 21 -14q6 -8 8 -23q2 -8 2 -20q0 -16 -2 -41q-2 -14 -6 -39q-2 -18 -2 -21q0 -12 -2.5 -98 t-4.5 -145q-4 -88 -10 -142q-4 -33 -10 -55q-8 -29 -21 -41q-27 -27 -88 -51q-16 -6 -45 -17q-31 -10 -41 -14q-109 -43 -233 -50q-23 -1 -47 -1q-99 0 -196 23q-120 30 -227.5 87.5t-193.5 148.5t-131 204q-45 123 -46 251z" />
<glyph unicode="H" horiz-adv-x="1458" d="M174 1069q-4 129 -4 232t4 180q0 12 10.5 20t22.5 8t20.5 -10t8.5 -22q-4 -77 -4 -178.5t4 -227.5q0 -29 3 -104.5t3 -116.5q91 -6 225 -6q107 0 240 4q428 10 483 10q2 70 2 131q0 25 -12 268q-3 73 -3 130q0 86 7 137q2 12 12 20q8 6 18 6h4q12 -2 20.5 -12t6.5 -22 q-7 -47 -7 -130q0 -55 3 -126q12 -244 12 -271q0 -152 -12 -454t-12 -453q0 -31 -31 -31t-31 31q0 139 11 401l12 314q-55 0 -483 -11q-127 -3 -231 -3q-138 0 -232 5q2 -70 2 -129q0 -41 -4 -143t-4 -147q-1 -32 -1 -60q0 -143 17 -213q4 -12 -2 -23.5t-18.5 -14.5 t-23.5 3.5t-13 18.5q-22 79 -22 237q0 25 1 52q0 47 4 148t4 142q0 80 -10 410z" />
<glyph unicode="I" horiz-adv-x="462" d="M179 256v52q0 50 1 86q2 56 8 151l7 139q4 36 4 142q1 100 -3 262q-8 334 -8 405q0 31 31 31t31 -31q0 -73 7 -407q3 -156 3 -255q0 -113 -4 -151l-6 -137q-6 -95 -8 -151q-1 -37 -1 -85v-50q1 -79 9 -142q2 -12 -6 -22.5t-20 -12.5h-5q-11 0 -19 6q-10 8 -12 20 q-8 68 -9 150z" />
<glyph unicode="J" horiz-adv-x="962" d="M35 262q-5 9 -5 17q0 15 18 24q26 14 40 -12q6 -12 23 -41l24 -41q6 -14 21.5 -31.5t31.5 -30.5q65 -48 151 -48q56 0 120 20q74 23 132 67.5t85 102.5q16 33 20 112q1 23 1 49q0 53 -3 121q-4 70 -14 182.5t-12 139.5q-6 90 -6 191.5t3 226.5t3 192q0 31 30 31 q12 0 21.5 -9.5t9.5 -21.5q0 -68 -3 -191.5t-3 -224t6 -190.5q2 -29 12.5 -140.5t12.5 -181.5q4 -79 4 -140v-38q-4 -90 -25 -133q-35 -72 -103.5 -125t-154.5 -80q-58 -20 -122 -20q-23 0 -46 3q-90 9 -155 56q-20 14 -40 38t-30 39t-27 46z" />
<glyph unicode="K" horiz-adv-x="1280" d="M158 90q2 53 10 181t11 180.5t9 180.5q4 88 3 141q-1 24 -1 40q-2 53 -4 180q-2 51 -13 166t-14 175q-1 16 -1 37q0 54 6 136q2 12 12 20.5t22.5 6.5t20.5 -12.5t6 -22.5q-6 -79 -6 -130q0 -19 1 -34q3 -55 14.5 -167.5t13.5 -170.5q2 -41 2 -82l51 50l94 86l166 157 l217 209l172 150q11 9 22 9q12 0 22 -12q20 -24 -3 -42q-88 -74 -172 -154l-217 -205l-166 -157l-92 -86l-55 -52l-4 -4l8 -6l65 -55l70 -55q35 -29 41 -35q68 -63 301 -269q205 -180 297 -280q9 -11 9 -21q0 -13 -12 -23q-22 -20 -42 3q-104 113 -291 276 q-283 248 -303 269q-6 6 -39 32l-70 56l-65 55l-2 2q0 -86 -4 -188.5t-7 -170t-11.5 -192.5t-10.5 -176q0 -12 -10 -20.5t-22.5 -8.5t-20.5 10.5t-8 22.5z" />
<glyph unicode="L" horiz-adv-x="1122" d="M160 1511q2 15 11 23q7 7 18 6h5q14 -2 21.5 -11.5t5.5 -21.5q-7 -78 -7 -178q0 -138 13 -317q29 -393 29 -502q0 -14 -3 -84t-5 -111q-1 -34 -1 -61.5t1 -48.5q2 -23 4 -37v-6q4 -2 10 -2q23 -4 66 -6q70 -2 204 -4q338 0 359 -3q13 -2 21 -12q7 -8 6 -17v-6 q-2 -12 -13 -20q-8 -6 -17 -6h-5q-16 2 -351 2q-135 2 -206 4q-47 2 -72 6q-16 2 -27 6q-18 6 -26 19q-6 12 -11 37q-2 16 -4 43q-1 22 -1 50.5t1 63.5q2 41 5.5 110t3.5 83q0 98 -29 498q-13 180 -13 319q0 103 7 184z" />
<glyph unicode="M" horiz-adv-x="1798" d="M150 117q0 152 28 561q16 233 17 373q0 190 -7 266q0 8 -10 106l-6 54v18v6v8l4 9q10 14 25 14q18 2 37 -14q10 -10 20 -25q20 -25 47 -70q35 -57 66 -118q37 -72 92 -207q59 -147 88 -205l96 -197l101 -198l112 -240l23 -49l26 76q53 166 74 215q223 524 365 811l88 180 l22 49l6 12l2 4l2 3v2l2 2q2 2 3 4q9 9 20 9q6 0 14 -3q10 -4 15 -14q2 -2 3 -5.5t1 -7.5q2 -6 4 -14q2 -14 4 -43q6 -55 10 -137q14 -199 15 -301q0 -57 1 -174t1 -175q0 -86 16 -270t16 -276q0 -31 -30.5 -31t-30.5 31q0 86 -16.5 270t-16.5 276q0 57 -1 174t-1 175 q0 100 -14 297q-2 49 -6 90l-76 -156q-115 -240 -361 -807q-20 -49 -73 -209l-33 -100q-8 -20 -12 -33q-2 -6 -7 -12q-2 -2 -4 -6q-6 -10 -18 -12.5t-25 6.5l-4 4q-2 2 -4 6l-6 8q-4 8 -12 23l-39 81l-113 242q-39 84 -98 199q-68 131 -98 196q-27 57 -88 207 q-51 129 -89 201q-31 59 -65 117l-10 16q6 -72 8 -88q6 -78 6 -270q0 -143 -16 -377q-29 -408 -29 -557q0 -31 -30.5 -31t-30.5 31z" />
<glyph unicode="N" horiz-adv-x="1572" d="M170 96q6 92 6 269q0 106 -2 243q-2 130 -2 236q0 176 6 282q10 170 10 301v3q-2 2 -2 10q-6 31 17 45q25 18 57 2q20 -10 47 -33q39 -39 94 -113q47 -66 140 -213q80 -127 237 -329q186 -240 246 -330l131 -190l80 -113l22 -31q2 14 5 45q4 55 6 139v99q0 55 1 93t1 52 q8 174 20 363q17 243 17 406q0 78 -4 138q0 12 8 22.5t20 10.5t22.5 -8t10.5 -20q4 -63 4 -145q0 -165 -16 -408q-12 -195 -21 -363q0 -14 -1 -51t-1 -92v-99q-2 -88 -6 -141q-2 -31 -4 -49q-2 -12 -4 -21q-2 -12 -8 -18q-19 -24 -45 -24q-11 0 -23 4q-4 2 -10 6q-2 0 -3 2 t-3 4q-4 4 -11 12l-26 37l-80 115l-131 192q-59 88 -246 326q-162 207 -242 334q-102 162 -135 209q-53 70 -88 104q-8 8 -14 12q0 -131 -10 -299q-6 -101 -7 -265q0 -109 3 -247q2 -130 2 -232q0 -188 -7 -286q0 -12 -10 -20.5t-22.5 -8.5t-20.5 10.5t-8 22.5z" />
<glyph unicode="O" horiz-adv-x="1738" d="M86 776q0 23 23 29q33 193 117.5 364.5t219.5 272.5q119 88 252 120q81 19 156 18q49 0 97 -8q120 -20 230.5 -83.5t189.5 -159.5t124 -226q40 -115 40 -239q0 -17 -1 -33q-10 -240 -146.5 -429t-340.5 -277q-135 -57 -275 -59q-5 0 -10 -1l-272 66q-140 68 -248 205 q-156 199 -156 440zM152 715q18 -188 139 -342q98 -125 226 -187q124 -60 247 -59h8q127 2 250 55q190 80 316 256t135 398q1 16 1 33q0 111 -36 215q-41 118 -114 206t-173 146t-210 76q-42 7 -85 7q-72 1 -146 -17q-120 -28 -227 -109q-135 -100 -217 -282.5t-106 -377.5 q-2 -10 -8 -18z" />
<glyph unicode="P" horiz-adv-x="1243" d="M135 1493q-2 12 5.5 22.5t19.5 14.5q29 6 63.5 8t56.5 3h26.5h37.5q43 -1 55 -1q84 0 150.5 -5t145.5 -25.5t137.5 -54.5t109.5 -95q49 -63 76 -150q22 -69 22 -125q0 -75 -39 -129q-94 -133 -358 -172q-102 -15 -237 -15q-76 0 -162 5h-2q0 -76 -4 -176 q-10 -373 -11 -475q0 -31 -30.5 -31t-30.5 31q0 102 10 477q5 185 5 312q0 96 -3 159q0 25 -16 175q-11 103 -10 170q0 31 2 54q-14 6 -19 23zM215 1477q-2 -22 -2 -51q1 -68 11 -172q14 -146 16 -179q4 -108 4 -239h4q82 -4 155 -5q133 0 232 15q238 35 317 147 q27 37 27 95q0 47 -18 106q-29 90 -84.5 149.5t-135 87t-157.5 38t-185 10.5q-158 0 -184 -2z" />
<glyph unicode="Q" horiz-adv-x="1843" d="M109 774q0 319 183 531.5t503 246.5q40 4 79 4q93 0 182 -24q126 -33 221 -102.5t164.5 -172t99.5 -217.5q21 -81 21 -171q0 -37 -3 -74q-12 -127 -74 -250q-63 -127 -232 -269q-80 -68 -149 -104q80 2 291 12h108q88 0 99 9q12 2 23 -5.5t13 -19.5v-5q0 -10 -5 -19 q-7 -11 -19 -13q-43 -8 -127 -8h-88q-6 0 -61.5 -3t-66.5 -3t-62.5 -2t-72 -2t-65.5 -1h-41h-32q-27 1 -66 2t-73 4t-68 9q-367 45 -553 248q-129 139 -129 399zM170 774q0 -236 113 -358q172 -184 516 -230q49 -6 98 -8q6 2 12 2q133 0 303 142q160 135 220 251 q55 111 66 230q3 34 3 67q0 82 -19 156q-28 104 -91.5 196.5t-150.5 156t-200 96.5q-78 21 -158 21q-39 0 -79 -5q-297 -35 -465 -225q-168 -195 -168 -492z" />
<glyph unicode="R" horiz-adv-x="1267" d="M178 848q8 170 12 244q2 52 2 134v76q-2 134 -12 242q-2 12 6.5 21.5t22.5 11.5q8 0 14 -2q151 38 285 37q123 0 231 -31q135 -37 221.5 -129t100.5 -246q2 -24 2 -47q0 -168 -117 -258q-109 -84 -313 -102q16 -29 57 -81t53 -71q248 -360 297 -545q4 -12 -2 -23t-18 -15 q-4 -1 -8 -1q-8 1 -16 5q-12 6 -13 18q-47 174 -289 524q-12 18 -39.5 53t-50 67t-37.5 63v2q-33 -1 -73 -1t-86 1q-162 4 -170 4h-2q-7 -162 -7 -297q0 -209 17 -352q2 -12 -6.5 -22.5t-20.5 -12.5t-22.5 6t-12.5 20q-16 129 -16 334q0 162 10 373zM240 860q6 0 170 -4 q37 -1 70 -1q66 0 114 3q212 12 316 92q91 70 91 210q0 20 -2 42q-23 248 -276 320q-99 28 -213 28q-125 0 -266 -34q9 -97 9 -240q0 -174 -13 -416z" />
<glyph unicode="S" horiz-adv-x="1169" d="M119 305q-5 10 -5 18q0 16 18 24q28 13 40 -13q6 -10 19 -39t20.5 -42t20 -31.5t24.5 -31.5q58 -52 156 -76q63 -16 125 -15q36 0 71 5q102 12 169 64.5t75 136.5q2 24 2 47q0 145 -88 240q-68 72 -242 156q-10 6 -30 14l-76 37q-25 12 -70 37.5t-68.5 46t-53 53.5 t-43 65.5t-21.5 77.5q-5 26 -5 54q0 21 3 43q16 147 119 245q104 96 243 125q50 10 98 10q84 0 164 -30q125 -47 179 -168q4 -8 4 -16q0 -18 -21 -26q-29 -12 -41 17q-41 96 -145 136q-65 25 -137 25q-43 0 -88 -9q-123 -25 -211 -109t-103 -209q-2 -16 -2 -32q0 -23 4 -45 q6 -36 16.5 -63.5t36 -54t46 -44t62.5 -41t67 -35.5l77 -37q14 -8 23 -12q184 -88 260 -170q105 -111 104 -278q0 -26 -2 -54q-10 -113 -94 -177.5t-203 -80.5q-41 -6 -82 -6l-140 17q-111 28 -179 91q-16 14 -32.5 38t-24.5 40l-23 47q-14 31 -16 35z" />
<glyph unicode="T" horiz-adv-x="1206" d="M-31 1464v5q-1 10 5 18q8 10 22 12q122 21 347 21q67 0 142 -2q113 -3 204 -3q182 0 278 11h4q9 0 18 -6q11 -8 13 -21q1 -3 0 -5q0 -10 -6 -18q-8 -10 -21 -12q-98 -12 -251 -12q-85 0 -187 4q0 -106 12.5 -302t13.5 -271q3 -39 3 -137q0 -100 -3 -258q-6 -316 -6 -394 q0 -31 -30.5 -31t-30.5 31q0 80 5 358q3 155 3 271q0 93 -2 160q-2 74 -14.5 270.5t-12.5 302.5q-79 3 -149 3q-196 0 -322 -21q-12 -2 -22.5 5t-12.5 21z" />
<glyph unicode="U" horiz-adv-x="1482" d="M143 1314q2 97 17 183q2 13 12 21q8 6 18 6h6q14 -2 20.5 -12.5t4.5 -22.5q-14 -86 -16 -178q-1 -31 -1 -67q0 -72 3 -158q4 -130 4 -183q0 -47 -3 -143t-3 -170q0 -70 10 -137q8 -55 47 -127q53 -94 166 -154.5t246 -73.5q34 -4 68 -3q96 0 184 30q118 41 184 131 q39 55 66 213q23 133 32 340q8 170 9 623q0 31 30.5 30.5t30.5 -30.5q0 -453 -8 -625q-10 -211 -33 -348q-29 -172 -78 -240q-78 -104 -211 -150q-102 -35 -212 -35q-34 0 -68 3q-145 14 -270.5 81.5t-188.5 178.5q-45 80 -54.5 147.5t-10.5 144.5v35q0 63 2 139q4 97 4 140 q0 47 -4 181q-3 92 -4 167q0 33 1 63z" />
<glyph unicode="V" horiz-adv-x="1402" d="M6 1509q-5 9 -5 17q-1 14 17 24q9 5 17 6q14 0 24 -18q33 -57 76 -183t51 -145q188 -461 293 -770l60 -180q23 -63 36 -98l5 -6l4 8q18 37 45 104l41 117q23 66 26 76l140 330l168 405l135 332q4 12 16 17t23.5 1t16.5 -16q3 -7 3 -13q0 -5 -2 -10l-135 -333l-168 -406 l-139 -332q-4 -8 -25 -71l-43 -117q-27 -72 -47 -113q-14 -25 -25 -39q-18 -22 -40 -22h-5q-14 2 -24 14q-4 6 -8 14q-8 12 -17 35q-16 37 -39 103l-59 180q-106 309 -293 766q-12 33 -51 149.5t-72 173.5z" />
<glyph unicode="W" horiz-adv-x="2070" d="M14 1509q-5 9 -5 17q0 14 18 24q9 5 17 6q15 0 24 -18q31 -55 53 -120.5t47 -157.5l35 -123l51 -158l57 -184q16 -53 43 -152.5t43 -181.5q29 -145 43 -203l21 -74l16 52l41 145q33 123 77 252t112 307l92 246l30 100q23 72 41.5 120t38.5 69v4q2 6 4 10q12 35 45 29 q10 -2 19 -11q2 -4 6 -8q2 -6 6 -14q6 -14 17 -41l34 -117q10 -33 25 -82l20 -78q8 -29 11 -37q41 -117 74.5 -245.5t75.5 -310t61 -248.5q18 -76 43 -158v-4l2 2q23 55 59 153l92 252q12 37 59.5 160t71.5 193q10 31 57.5 163t73.5 216q25 82 39 163q2 12 12.5 19.5 t23.5 5.5q12 -3 20 -13q6 -8 6 -18v-6q-14 -80 -41 -168t-75 -222t-58 -161q-23 -68 -71 -192.5t-60 -159.5l-93 -252q-37 -100 -59 -156q-14 -33 -23 -53q-6 -10 -10 -16l-4 -8q-8 -8 -18 -11q-5 -2 -10 -2q-10 0 -19 8q-4 2 -6 7q0 2 -2 4t-2 6q-2 6 -6 16q-8 23 -19 56 l-45 159l-57 252q-43 178 -77 305t-73 244q-4 10 -12 41l-22 78l-23 82q-18 68 -31 104q-16 -31 -94 -250l-90 -245q-68 -176 -112 -304.5t-79 -250.5l-38 -146q-16 -51 -25 -80q-6 -18 -10 -28q-4 -6 -6 -11l-4 -8q-8 -8 -21 -10q-14 -2 -29 8q-8 6 -14 14q-8 14 -16 37 q-14 35 -31 101q-16 70 -45 207q-18 86 -41 178q-27 96 -42 149t-57 184.5t-51 159.5q-12 37 -36.5 126t-45 149.5t-49.5 113.5z" />
<glyph unicode="X" horiz-adv-x="1370" d="M12 113q154 174 400 577q43 68 100 146q-178 260 -270 407q-16 27 -72 127q-43 80 -72 117q-18 25 6 43q10 8 20 8q12 0 23 -14q33 -45 78 -125q53 -98 70 -123q90 -145 256 -387l176 219q35 45 137 195q86 123 148 192q20 23 42.5 2.5t2.5 -43.5q-57 -66 -142 -186 q-113 -162 -139 -197l-188 -235l137 -203q57 -84 215 -266q156 -180 219 -271q7 -11 7 -21q0 -13 -14 -23q-11 -7 -20 -7q-13 0 -22 14q-57 84 -217 267q-150 172 -217 274l-127 182q-47 -66 -84 -125q-260 -420 -408 -585q-21 -22 -43 -2q-12 11 -11 22q0 10 9 21z" />
<glyph unicode="Y" horiz-adv-x="1228" d="M-6 1501q-5 10 -5 18q0 15 19 24q9 4 16 4q15 0 23 -17q125 -248 373 -623q6 -6 59 -98l21 -33l43 62l69 108q68 100 183.5 295t171.5 281q16 27 43 10q16 -10 16 -24q0 -9 -6 -19q-57 -86 -173 -280.5t-181 -295.5l-72 -108l-45 -68q-10 -12 -17 -20v-6q-8 -61 -8 -88 t7.5 -90.5t9.5 -96.5q2 -57 4 -171.5t4 -170.5q0 -14 -8.5 -23.5t-21.5 -9.5t-22.5 8.5t-9.5 20.5q-2 57 -4 172t-4 170q-2 25 -8 88.5t-7 95.5v10q0 32 5 87q-4 6 -12 16l-31 49q-53 90 -55 96q-250 373 -377 627z" />
<glyph unicode="Z" horiz-adv-x="1398" d="M49 135l4 21q6 16 19 41q23 43 65 110l142 213q270 408 589 760q37 43 82 111q27 41 37 65q0 4 2 8q-18 0 -51 2q-57 0 -158 -2q-49 0 -109.5 -1t-99.5 -2t-47 -1h-420q-31 0 -31 31t31 31h420q8 0 47 1t98.5 2t110.5 1q100 2 158 2q37 -2 55 -2q12 -2 21 -2q4 0 8 -2 q8 -2 14 -9q16 -14 17 -40q0 -16 -9 -37q-12 -33 -43 -78q-47 -74 -88 -119q-315 -348 -585 -752l-140 -213q-41 -66 -61 -104l-10 -25q8 -2 20 -2q33 -4 88 -6h66q25 0 52.5 1t33.5 1q131 0 393 3t393 3q31 0 31 -30.5t-31 -30.5q-131 0 -393 -3t-393 -3q-6 0 -34 -1 t-54 -1h-64q-59 2 -94 6q-25 2 -39 6q-23 6 -33 18.5t-10 28.5z" />
<glyph unicode="[" horiz-adv-x="636" d="M119 1188q0 113 4 176q2 61 10 100q4 25 8 41q8 23 21 35q8 8 26 12q10 2 27 2q25 2 70 2q109 2 110 3q12 2 22.5 -6.5t12.5 -20.5t-6.5 -22.5t-20.5 -12.5q-6 0 -118 -2q-43 0 -66 -2q-10 0 -16 -2q-2 -2 -2 -4q-4 -12 -8 -33q-6 -35 -9 -94q-4 -61 -4 -172 q0 -332 33 -1002q0 -18 2 -209q2 -84 2 -122q0 -25 2 -39q8 -6 19 -9q20 -4 53 -4q18 0 59 2t51 2q31 0 31 -30.5t-31 -30.5q-8 0 -47 -2t-63 -2q-41 0 -68 6q-41 8 -59 33l-6 12v4v4v13q-2 14 -2 41q0 39 -2 122q-2 188 -2 205q-33 674 -33 1006zM213 -182q0 2 4 0 q-2 4 -4 0z" />
<glyph unicode="\" horiz-adv-x="952" d="M2 1530q-16 25 9.5 42.5t43.5 -9.5q127 -195 244 -442t240 -535.5t204 -454.5q14 -29 -13.5 -42t-39.5 13q-88 174 -210 461t-236.5 529.5t-241.5 437.5z" />
<glyph unicode="]" horiz-adv-x="688" d="M96 1536q0 31 31 31l135 8q53 2 80 2h31q6 0 10 -2q12 0 19.5 -6t11.5 -15q0 -4 2 -10t4 -18q2 -20 6 -58q6 -61 14 -165q4 -80 15 -269q27 -530 26 -923q0 -4 2 -58.5t0 -89.5q0 -51 -6 -84q-10 -51 -39 -65q-14 -8 -55 -15q-29 -2 -78 -4q-117 -8 -127 -10 q-12 -2 -23.5 5t-13.5 19.5t5.5 23.5t19.5 13q16 2 137 9l72 6q25 4 33 6q6 8 8 24q6 27 6 74q2 35 0 88t-2 58q0 389 -27 919q-10 190 -14 268q-8 104 -14 164q-2 35 -7 54h-14q-27 0 -78 -3q-137 -8 -139 -8q-31 0 -31 31z" />
<glyph unicode="^" horiz-adv-x="1290" d="M143 616q8 33 25.5 68t40.5 74l35 55q41 80 126 260t136 273l12 26q10 20 23 43l24 43q25 39 45 60q12 14 27 22q23 10 43 -2q27 -14 41 -55q12 -39 14 -43q250 -432 350 -813q2 -12 -4 -23.5t-18 -14.5t-23.5 3t-15.5 18q-96 373 -342 801q-4 8 -20 53q-2 10 -5 15 q-2 -2 -4 -2q-14 -16 -35 -52q-12 -18 -24 -41l-23 -43l-12 -24q-49 -92 -134 -272.5t-128 -260.5q-12 -25 -34.5 -61.5t-38 -65t-23.5 -57.5q-2 -12 -13.5 -18.5t-23.5 -3t-18.5 14.5t-2.5 23z" />
<glyph unicode="_" horiz-adv-x="1185" d="M-94 -139.5q0 30.5 31 30.5q168 0 505.5 18.5t507.5 18.5q31 0 31 -30.5t-31 -30.5q-168 0 -506 -18.5t-507 -18.5q-31 0 -31 30.5z" />
<glyph unicode="`" horiz-adv-x="526" d="M6.5 1542.5q19.5 23.5 42.5 5.5q49 -39 92 -87t103 -130l71 -96q18 -25 -6 -43t-43 6q-16 20 -73.5 98t-96.5 123t-84 80q-25 20 -5.5 43.5z" />
<glyph unicode="a" horiz-adv-x="1064" d="M83 282q-8 26 -8 53q0 45 21 93q78 158 393 219q66 12 141 12q52 0 107 -6q-2 33 -6 62q-23 176 -92 241q-52 51 -140 51q-55 0 -124 -20q-6 -2 -17 -6q-43 -12 -64.5 -19.5t-49 -23.5t-45.5 -41q-20 -23 -43.5 -3.5t-5.5 44.5l24 25q12 10 22.5 18t28 16.5t24.5 12.5 t28.5 11t25.5 8t28.5 8t26.5 7q79 23 145 24q110 0 179 -67q84 -82 111 -278q6 -49 9 -103.5t6 -135.5t3 -105q10 -193 45 -264q5 -10 5 -18q-1 -17 -19 -25q-9 -4 -16 -4q-15 0 -23 18q-33 63 -45 180q-66 -92 -150 -142t-165 -56q-15 -1 -30 -1q-65 0 -125 20 q-74 24 -126 73q-59 54 -79 122zM142 299q14 -51 61 -94q49 -43 117 -61q45 -12 94 -13q24 0 49 3q76 9 153.5 69.5t135.5 169.5v4q-2 27 -5.5 100.5t-5.5 114.5q-55 7 -106 7q-70 0 -133 -13q-287 -55 -350 -187q-16 -31 -16 -63q1 -18 6 -37z" />
<glyph unicode="b" horiz-adv-x="1325" d="M170 678q0 47 14 94v414q0 51 6 192q5 112 5 169v18q0 14 8 23t21.5 9t22.5 -8t9 -20v-36q0 -60 -4 -159q-6 -137 -6 -188v-301q98 123 268 172q90 22 176 21h12q92 -2 178.5 -48.5t137.5 -132.5q82 -139 100 -287q4 -34 3 -67q0 -105 -38 -199q-53 -129 -170 -205 q-117 -73 -285 -73h-5q-193 0 -293 94q-39 37 -84 102v-196q0 -31 -31 -31t-31 31v585q-14 10 -14 27zM246 375l28 -47l33 -45q10 -16 28.5 -39t35.5 -39q84 -78 252 -78q154 0 256 64.5t147 175.5q33 77 33 171q1 32 -3 67q-16 134 -91 259q-61 106 -187 140 q-57 15 -112 15q-67 0 -134 -22q-104 -29 -180.5 -92t-105.5 -143v-387z" />
<glyph unicode="c" horiz-adv-x="1085" d="M91 568q1 96 33 184t89 159.5t149 112.5q87 39 193 39h10q205 -4 309 -143q8 -11 8 -20q0 -14 -14 -24q-24 -18 -43 7q-86 115 -260 118h-11q-182 0 -288 -124q-111 -127 -112 -310v-11q0 -111 39 -204q43 -100 137 -164.5t225 -64.5q96 0 159.5 12t108.5 53q23 20 43 -2 q10 -10 10 -21t-12 -22q-39 -37 -100.5 -56t-102 -22.5t-106.5 -3.5q-115 0 -207 44.5t-148 116.5q-54 73 -82 162q-27 86 -27 178v6z" />
<glyph unicode="d" horiz-adv-x="1255" d="M74 596q12 121 69 215q55 96 133 149.5t174 75.5q56 12 111 12q40 0 79 -6q93 -16 179 -69t144 -137q-14 276 -15 458q0 35 -3 105.5t-3 130t6 110.5q2 12 12 20q8 7 17 7h5q13 -2 21.5 -11.5t6.5 -23.5q-6 -74 -6 -110.5t3 -111.5t3 -116q0 -197 20 -589l2 -23 q2 -12 6 -27q2 -12 -4 -22q16 -330 17 -522q0 -31 -31 -31t-31 31q0 100 -4 215q-33 -63 -63 -101q-70 -82 -168 -124q-93 -40 -184 -40h-9q-96 2 -190.5 41t-164 106.5t-108.5 168.5q-27 75 -27 159q0 30 3 60zM135 588q-2 -24 -2 -46q1 -74 25 -142q32 -88 92.5 -147.5 t142.5 -93.5t167 -36h9q80 0 160 33q86 37 148 110q33 39 90 162q6 10 14 14q-4 84 -10 230q-31 109 -103.5 183.5t-159.5 104.5q-71 25 -148 25q-18 0 -36 -1q-96 -7 -178 -52t-140.5 -134t-70.5 -210z" />
<glyph unicode="e" horiz-adv-x="1155" d="M90 674q25 117 108 206q83 90 187 126q67 23 139 23q41 1 83 -7q118 -20 206 -104q57 -55 107 -173q27 -63 30 -108v-11q0 -59 -39 -83q-6 -6 -18 -8h-19q-16 -2 -47 -3q-49 0 -137 3q-41 0 -92 2t-83 3t-40 1q-57 0 -168 3t-160 3q12 -102 80 -187.5t168 -138.5 q86 -45 175 -56q26 -3 52 -3q62 0 124 18q88 26 149 92q20 22 43 2q12 -11 12 -22q0 -10 -10 -21q-74 -81 -176 -111q-69 -21 -138 -20q-32 0 -64 4q-100 14 -193 62q-145 76 -227 213q-60 100 -60 210q0 42 8 85zM143 608q51 0 162 -3t170 -3q8 0 40 -1t84 -3t93 -2 q86 -2 135 -2h45q7 2 9 2q8 8 8 28v9q-2 35 -25 88q-45 106 -92 151q-76 72 -176 90q-35 6 -70 6q-62 0 -120 -21q-90 -32 -162 -107.5t-92 -177.5q-6 -27 -9 -54zM881 596h2h-2z" />
<glyph unicode="f" horiz-adv-x="733" d="M10 999.5q0 12.5 8.5 22.5t20.5 10q78 4 166 6q2 78 4 148q0 23 -2 98q-1 24 -1 45q0 41 3 68q8 143 82 209q41 37 106 43h54q39 -2 47 -2q31 0 31 -31t-31 -31q-8 0 -49 2h-48q-45 -4 -69 -26q-55 -49 -62 -168q-3 -25 -3 -64q0 -20 1 -43q2 -78 2 -100l-4 -148 q88 2 221 2q31 0 31 -30.5t-31 -30.5q-135 0 -221 -2q-3 -21 -3 -197q0 -89 1 -216q2 -382 2 -412.5t-30.5 -30.5t-30.5 30.5t-2 411.5q-1 127 -1 215q0 177 3 199q-86 -2 -162 -6q-12 0 -22.5 8t-10.5 20.5z" />
<glyph unicode="g" horiz-adv-x="1245" d="M102 367q-8 39 -8 87q0 67 15 152q31 178 157.5 294t286.5 142q39 6 77 6q79 0 152 -26q107 -37 170 -131q2 61 9 117q2 12 12 20t22.5 6t20.5 -12.5t6 -22.5q-6 -53 -9 -109q-2 -34 -2 -72q0 -25 1 -52q2 -68 4 -111l10 -127q6 -84 8 -118q9 -88 9 -188q0 -57 -3 -118 q-10 -164 -55 -299q-51 -154 -244 -231q-115 -46 -223 -46q-57 0 -112 13q-160 39 -267 228q-14 27 12.5 41t41.5 -13q94 -164 225 -194q51 -13 104 -13q95 0 197 41q166 66 209 195q52 155 52 380q0 30 -1 62q-57 -115 -154 -162q-88 -41 -203 -48q-22 -1 -44 -1 q-90 0 -175 23q-115 33 -195.5 105.5t-105.5 181.5zM164 379q18 -88 86.5 -149.5t169.5 -90.5q77 -22 159 -22q20 0 39 1q103 7 179 46q59 27 95 77t66 130q4 10 17 16l-2 19q-2 35 -7 99t-8.5 117.5t-5.5 100.5q-2 2 -2 4q-27 147 -136 213q-79 48 -175 48q-37 0 -76 -7 q-141 -23 -253.5 -126t-139.5 -261q-14 -77 -14 -136q0 -44 8 -79z" />
<glyph unicode="h" horiz-adv-x="1148" d="M174 1604v6q0 10 5 18q7 10 21 12h5q11 0 19 -5q10 -7 12 -19q10 -61 10 -133q1 -29 1 -60q0 -46 -2 -96q-3 -84 -3 -127q0 -41 8 -336q82 117 213 176q69 33 137 38q9 1 19 1l117 -27q68 -32 110 -104q53 -88 76 -203q25 -115 25 -196q0 -75 -8 -225q-7 -140 -7 -195 q0 -31 -31 -31t-31 31q0 63 7.5 200.5t7.5 215.5t-21.5 184.5t-70.5 185.5q-49 81 -135 97q-23 4 -45 5q-63 0 -126 -32q-84 -39 -148.5 -108.5t-86.5 -145.5q8 -362 8 -608q0 -31 -30.5 -31t-30.5 31q0 238 -6 577q-8 10 -7 23l4 16q-2 72 -5 225.5t-5 235.5q-1 16 -1 36 q0 40 3 95q3 66 3 121v28q-1 66 -11 124z" />
<glyph unicode="i" horiz-adv-x="442" d="M166 991v6q0 9 4 17q6 12 18.5 15t23.5 -3t15 -18q7 -41 11 -86q2 -24 2 -54q0 -24 -1 -54q-3 -64 -3 -81v-600q0 -31 -31 -31t-31 31v600q0 25 2 85q1 40 1 70v28q-1 40 -11 75zM166 1419.5q0 30.5 30.5 30.5t30.5 -30.5t-30.5 -30.5t-30.5 30.5z" />
<glyph unicode="j" horiz-adv-x="458" d="M-49 -350q0 31 31 31q121 0 176 79q12 18 20 71.5t12 137.5q3 67 3 161t-3 216q-2 70 -6 199t-6 202.5t-2 154.5t4 124q2 12 11.5 20.5t22.5 6.5t21.5 -11.5t6.5 -23.5q-4 -39 -4 -118t2 -151.5t6 -200.5t6 -202q3 -122 3 -217t-3 -164q-4 -86 -14 -143q-10 -66 -31 -94 q-72 -109 -225 -109q-31 0 -31 31zM170 1405q0 31 30.5 31t30.5 -31t-30.5 -31t-30.5 31z" />
<glyph unicode="k" horiz-adv-x="1034" d="M184 356q5 85 5 183v33q-1 118 -3 193t-8 218t-8 197q0 23 2 200v47q0 90 -6 148v5q0 10 6 18q8 10 22 12h4q10 0 18 -6q9 -8 11 -21q6 -62 6 -155v-48q-3 -103 -3 -156q0 -26 1 -40q18 -537 19 -574q8 6 18 11l6 4l2 2q117 76 249 189.5t180 197.5q14 27 40.5 12.5 t12.5 -41.5q-53 -96 -190.5 -215t-258.5 -197h-2l-2 -2l-6 -4l-6 -2q18 -8 35.5 -20.5t39 -29.5t27.5 -21q248 -184 426 -373q10 -11 10 -21t-12 -22q-10 -10 -21 -10t-22 12q-174 184 -418 364q-10 6 -30.5 23.5t-34.5 27t-29 15.5q-2 0 -12 2h-2q-2 -197 -23 -358 q-2 -12 -12 -20.5t-23 -6.5q-12 3 -20 13q-6 8 -6 17z" />
<glyph unicode="l" horiz-adv-x="448" d="M182 96v1491q0 31 31 31t31 -31v-1491q0 -31 -30 -31l-1 1q-31 0 -31 30z" />
<glyph unicode="m" horiz-adv-x="1785" d="M170 999q0 31 30.5 31t30.5 -31q0 -63 13 -180l2 -14q72 190 235 231q55 13 100 13q60 0 105 -23q106 -55 150 -293q8 -47 14 -104q25 84 65 153q53 86 133 151.5t175 86.5q25 6 49 6q100 0 170 -100q68 -94 100 -277q39 -201 39 -555q0 -31 -30.5 -31t-30.5 31 q0 350 -37 545q-33 168 -90 250q-51 73 -123 73q-17 0 -35 -4q-78 -16 -150 -73q-70 -57 -116 -135q-41 -66 -61.5 -155t-24.5 -154.5t-5 -176.5q0 -10 3 -31q2 -29 2 -38v-13q0 -42 -11 -69q-2 -2 -2 -4q-6 -12 -20 -15q-25 -8 -37 17q0 6 -1 10t-1 14q0 2 1 7t1 10v6 q0 18 1 76v53.5v43.5q-1 38 -5 72q-2 20 -4 39q-2 23 -4 53.5t-4 51.5q-8 104 -21 176q-37 207 -119 250q-28 15 -70 15q-39 0 -89 -13q-133 -31 -195 -193q-31 -82 -43 -192q1 -19 1 -50v-33q-1 -54 -1 -75q0 -102 4 -307h-12q-49 0 -53 31q-4 47 -5 98v58v70q1 77 1 99 q0 57 4 111v37q-2 41 -17 184q-12 119 -12 186z" />
<glyph unicode="n" horiz-adv-x="1134" d="M170 981q0 12 8 21.5t20.5 10.5t21.5 -7.5t11 -20.5q8 -102 15 -246q8 25 14 47q96 268 330 289q2 0 21.5 2t29.5 2q12 1 23 1q27 0 43 -7q182 -80 208 -434q8 -92 9 -274v-61l6 -163q0 -9 -6 -18q-8 -10 -20.5 -12t-23 6t-12.5 20q-6 47 -6 165v63q0 180 -6 268 q-27 317 -174 383q-10 4 -37 4q-10 -2 -28.5 -4t-22.5 -2q-193 -18 -275 -248q-55 -154 -59 -389q2 -18 5 -103.5t7 -130.5q0 -2 2 -10l2 -14q2 -12 3 -17.5t-3 -9.5q-2 -6 -6 -12q-10 -10 -24 -10h-4q-6 2 -11.5 5t-7.5 5l-2 4q-2 2 -2 4q-24 45 -24 126v7q0 23 2 65t2 58 v31v4q-4 61 -11.5 273t-17.5 329z" />
<glyph unicode="o" horiz-adv-x="1292" d="M90 694q27 103 70 158q-6 18 6 33q76 74 183.5 120t223.5 52q20 1 40 1q99 0 189 -33q108 -40 179 -132q89 -115 105 -263q4 -33 3 -66q-1 -114 -45 -221q-58 -138 -178 -220q-104 -73 -216 -97q-58 -12 -112 -13q-50 1 -96 11q-96 22 -178 80q-121 92 -171 249 q-26 81 -26 169q0 83 23 172zM152 678q-21 -82 -21 -158q0 -78 22 -148q44 -140 150 -218q68 -51 152 -72q39 -8 81 -9q49 0 102 12q99 21 196 87q104 74 155 196q39 94 39 194q0 30 -3 60q-15 132 -93 234q-58 78 -152 113q-74 28 -158 28q-21 0 -44 -2q-168 -10 -302 -100 q2 -21 -16 -31q-72 -41 -108 -186z" />
<glyph unicode="p" horiz-adv-x="1312" d="M176 653l6 13q0 199 6 354q0 12 9.5 20.5t22.5 8.5t21.5 -9.5t8.5 -23.5q-4 -80 -6 -170q31 57 88 100q150 113 352 113q113 0 201 -51.5t138 -132t71 -179.5q15 -67 15 -135q0 -31 -3 -63q-25 -219 -178 -342q-118 -93 -278 -93q-79 0 -169 23q-129 35 -233 162 q1 -108 1 -204q0 -239 -7 -400q0 -12 -10.5 -20.5t-22.5 -8.5t-20.5 10t-8.5 23q6 110 6 350q0 144 -2 334q-2 197 -2 289q-9 9 -9 19q0 6 3 13zM244 653q0 -100 2 -307q8 -4 12 -10q59 -80 111.5 -125t128.5 -64q84 -22 157 -22q137 0 236 78q131 104 153 303q4 34 4 68 q0 86 -26 167q-37 111 -126 183.5t-212 72.5q-184 0 -315 -100q-61 -47 -86 -117q-6 -14 -21 -69z" />
<glyph unicode="q" horiz-adv-x="1239" d="M119 379q-21 86 -21 165q0 100 33 191q61 164 197 254q88 59 188 76q31 5 63 5q73 0 150 -26q111 -36 205 -129q17 -16 31 -34l4 131q0 12 9 20t22.5 8t21.5 -9t8 -23q-4 -104 -6 -226l4 -8q7 -10 7 -19q0 -11 -11 -20q-1 -44 -1 -104q0 -120 3 -307q2 -179 2 -320 q0 -236 -6 -369q0 -12 -10.5 -20t-22.5 -8t-20 10t-8 23q8 153 8 387q0 117 -2 254q-41 -74 -103 -119q-90 -68 -206 -88q-49 -9 -95 -9q-66 0 -129 17q-115 29 -199.5 104.5t-115.5 192.5zM180 395q25 -100 96.5 -164.5t172.5 -89.5q53 -14 110 -14q43 0 87 8 q104 19 181 76q84 63 138 227q-3 131 -3 233q0 51 1 95l-17 29q-10 18 -16 28l-17 23q-10 14 -20 24q-86 82 -183 115q-70 23 -134 23q-26 0 -51 -4q-87 -13 -165 -66q-117 -80 -171 -226q-29 -79 -29 -166q0 -73 20 -151z" />
<glyph unicode="r" horiz-adv-x="790" d="M158 1004q0 12 8 22t20.5 10t22.5 -8t10 -20q4 -68 6 -150q90 129 320 205q5 2 11 2t12 -3q12 -6 16 -18q2 -6 2 -10q0 -7 -3 -13q-5 -11 -18 -15q-328 -109 -340 -326q0 -4 -2 -8q0 -20 -1 -57t-1 -56q-1 -49 -1 -94q0 -215 16 -348q2 -12 -6.5 -22.5t-20.5 -12.5h-5 q-10 0 -18 6q-10 8 -12 21q-15 136 -15 351q0 48 1 99q2 137 2 235q0 148 -4 210z" />
<glyph unicode="s" horiz-adv-x="942" d="M113 217q-8 11 -8 21q0 14 15 24q25 18 42 -8q45 -63 84 -88q45 -29 119 -35q23 -2 45 -2q51 0 102 12q76 18 120 58.5t44 99.5q0 117 -72 180q-55 47 -174 78q-20 4 -63 14l-76 19q-31 8 -58 18q-106 41 -120 127q-4 26 -4 50q0 87 50 157q64 90 171 125q56 15 111 15 q12 0 24 -1q67 -4 130.5 -46t98.5 -115q12 -27 -15.5 -40.5t-41.5 15.5q-39 83 -124 113q-42 15 -83 15q-42 0 -82 -15q-88 -30 -138 -100q-39 -55 -39 -125q0 -20 3 -40q8 -49 82 -77q25 -8 53.5 -16.5t69.5 -17.5t65 -16q133 -35 199 -90q94 -82 94 -227q0 -86 -61 -141 q-59 -55 -150 -78q-53 -13 -110 -13q-28 0 -58 3q-88 8 -145 43q-49 33 -100 104z" />
<glyph unicode="t" horiz-adv-x="765" d="M57 1018q64 0 156 -2q-8 188 -8 258q0 31 30.5 31t30.5 -31q0 -68 8 -258q135 -2 205 -2q31 0 31 -31t-31 -31q-70 0 -203 2q2 -66 2 -121.5t-2 -101.5q0 -20 -3 -76.5t-4 -83t-2 -76t-1 -82t3 -74.5t7 -79q10 -88 86 -141q43 -29 86 -30q34 0 68 20q27 13 41 -13 q5 -9 5 -17q0 -15 -17 -24q-49 -28 -98 -28q-60 0 -119 41q-98 68 -113 184q-6 45 -8 91t-2 108.5t1 88t5 106.5t4 89q2 45 2 100t-2 119q-94 2 -158 2q-31 0 -31 30q0 32 31 32z" />
<glyph unicode="u" horiz-adv-x="1124" d="M127 598q0 223 31 416q2 14 12 21t23.5 5t20.5 -12t5 -22q-31 -188 -31 -408q2 -270 64 -381q47 -82 151 -108q39 -10 78 -10q195 0 363 259q-8 168 -12 237q-1 27 -1 63q-1 57 3 138q6 132 24 232q2 12 14 20q9 6 18 5h5q11 -1 19 -13q6 -9 6 -19v-5q-18 -96 -24 -222 q-4 -82 -3 -138q0 -30 1 -54q3 -66 11 -229q8 -14 2 -29q6 -141 6 -231q0 -31 -30.5 -31t-30.5 31q0 63 -4 145q-169 -223 -366 -223q-46 0 -95 12q-129 35 -188 141q-70 123 -72 410z" />
<glyph unicode="v" horiz-adv-x="1009" d="M16 983q-6 10 -6 18q0 15 16 25q10 7 19 6q14 0 25 -16q25 -39 43 -81t39.5 -109.5t25.5 -82.5q18 -51 78 -186q57 -131 80 -188l8 -27q8 -20 18.5 -54t18.5 -55l18 -55l11 29l28 63q14 35 21 45q61 111 147 330q100 254 139 338q14 29 42 15q20 -9 20 -25q0 -7 -4 -15 q-39 -86 -139 -335q-90 -225 -152 -336q-4 -8 -18 -41l-27 -64q-16 -39 -27 -59q-8 -12 -12 -21q-4 -6 -8 -10q-12 -10 -26.5 -10t-26.5 14l-7 13q-4 10 -12 26l-26 78q-6 23 -17 53l-18 53q-6 20 -8 29q-20 53 -80 184q-53 121 -78 191q-8 20 -28.5 83.5t-37 102.5 t-39.5 74z" />
<glyph unicode="w" horiz-adv-x="1482" d="M35 999q-2 5 -2 11t3 12q5 12 17.5 16t23.5 -1t15 -17l55 -160l58 -174l51 -158q29 -92 49 -170l33 -141l4 -14l12 28q18 49 76 213l82 236q43 123 59 160q6 14 33 104q10 39 17 57q4 12 8 21q2 6 6 10q0 2 1 4t8 6.5t20 4.5q18 0 32 -21q8 -8 17 -25q10 -25 24 -67 q8 -27 19 -68q10 -35 10 -39l45 -143q31 -96 56.5 -168t56.5 -135l84 -176l6 -10l10 49q35 164 41 188q47 180 61 223l50 160q31 98 41 158q4 12 14 19t22.5 4t19.5 -13q5 -8 5 -17v-5q-14 -70 -43 -164l-51 -158l-62 -223q-8 -35 -39 -185q-10 -57 -16 -84q-6 -18 -8 -28 q-2 -6 -5 -11.5t-5 -7.5q-8 -10 -19 -12h-5q-12 0 -24 8q-4 4 -6 8q-6 6 -12 17q-10 18 -29 55q-33 63 -88 180q-29 63 -55.5 138t-56.5 174l-45 139q-2 6 -13 43q-10 41 -18 65q-6 16 -10 31l-4 -18q-27 -96 -35 -113q-12 -27 -58 -156l-82 -235l-77 -215q-18 -47 -31 -72 q-6 -14 -12 -22q-4 -6 -9 -11q-10 -8 -22 -10q-8 0 -15.5 3t-11.5 7l-2 5q-4 4 -6 10q-4 8 -8 20l-16 62l-35 141q-23 90 -47 170l-50 158l-57 170z" />
<glyph unicode="x" horiz-adv-x="1050" d="M14 98l101 123l90 119l100 131l92 123l-84 102q-18 23 -93 126.5t-124 148.5q-22 21 -2 43q11 12 22 11q10 0 21 -9q53 -47 133 -160q80 -109 92 -123l74 -90l21 29l84 102q55 70 95 123t73 107q10 17 24 17q9 0 19 -7q26 -17 10 -43q-35 -55 -76 -111l-98 -123l-82 -102 l-31 -39l365 -449q8 -10 8 -19q0 -12 -14 -23q-24 -19 -43 6l-355 434l-88 -119l-98 -131l-90 -115l-101 -123q-10 -12 -21 -12q-10 0 -20 9q-13 11 -13 23q0 10 9 21z" />
<glyph unicode="y" horiz-adv-x="952" d="M12 -324q11 9 23 7q30 -7 57 -7q22 0 42 5q44 10 77 49q23 27 43 61.5t33.5 60t30 71.5t22.5 69l20 78q16 55 21 71q-4 6 -6 15q-27 156 -170 405q-4 8 -37 66l-41 71l-35 64q-27 47 -39 74l-26 63q-16 39 -27 74q-2 5 -2 10q0 7 4 13q6 12 18 16q4 2 8 2q7 0 14 -4 q11 -7 15 -17q10 -35 27 -71l27 -62q10 -23 36 -69l33 -62q6 -14 40 -72.5t38 -64.5q119 -207 158 -340q59 180 272 725q4 12 16.5 17t23.5 1t16 -16q3 -6 3 -12t-2 -11q-219 -565 -282 -757q-12 -39 -36 -124t-40 -139.5t-51 -123.5q-35 -70 -80 -123q-63 -72 -172 -72 q-27 0 -57 4q-12 2 -21 13q-6 8 -6 17q0 15 12 25z" />
<glyph unicode="z" horiz-adv-x="966" d="M20 119q0 8 3 16q0 4 2 6q2 4 6 11q4 8 14 22l55 74l170 215l275 344l86 113q25 35 39 59l-19 -2q-94 -6 -164 -10q-260 -14 -372 -15q-31 0 -31 31t31 31q111 0 368 14q72 4 164 10l51 2q10 2 15 2h4h2h2h2q4 0 6 -2q12 -4 19 -16q4 -10 2 -25q-2 -6 -7 -14 q-4 -12 -14 -29q-18 -29 -49 -71l-86 -115l-277 -346l-167 -215l-52 -68h8q39 -4 113 -6q53 0 140 1t98 1q45 0 137 2t137 2q31 0 31 -30.5t-31 -30.5q-45 0 -137 -2t-137 -2q-10 0 -98.5 -1t-139.5 -1q-76 2 -119 6q-27 2 -43 6q-10 4 -18 8q-14 8 -19 25z" />
<glyph unicode="{" horiz-adv-x="696" d="M-63 684q-8 20 8 37q8 6 18 10q2 0 8 2h4v2q51 33 80 80q10 16 17.5 35.5t11.5 34t7 40t5 38t4 44t2 42.5q2 31 0 118q0 90 4 140q14 178 125 235q98 53 203 4q29 -14 16 -41.5t-40 -15.5q-78 37 -150 0q-80 -43 -92 -189q-4 -47 -4 -131q2 -92 0 -125q0 -10 -2 -41.5 t-4 -44.5l-6 -43q-4 -29 -8.5 -47t-13.5 -41.5t-21 -44.5q-33 -53 -89 -92q20 -14 39 -31q84 -78 103 -172q14 -76 14 -233q2 -158 12 -223q18 -104 72 -156q66 -61 201 -61q31 0 31 -31t-31 -31q-160 0 -242 78q-70 66 -90 193q-12 68 -14 231q0 152 -15 221 q-14 76 -82 139l-47 37l-16 11l-6 4l-2 2l-4 4q-4 4 -6 12z" />
<glyph unicode="|" horiz-adv-x="464" d="M154 571q-6 190 2 542.5t8 461.5q0 31 30.5 31t30.5 -31q0 -109 -8 -460t-2 -544q4 -113 24.5 -431t20.5 -490q0 -31 -30.5 -31t-30.5 31q0 172 -20.5 489.5t-24.5 431.5z" />
<glyph unicode="}" horiz-adv-x="757" d="M39 1520.5q0 13.5 8.5 22.5t20.5 9q182 8 262 -69q68 -63 69 -195q0 -45 -6 -114q0 -12 -4 -53.5t-6 -65.5q-10 -139 12 -219q18 -55 64 -76l20 -10q16 -6 23 -9q31 -14 45 -36q16 -29 -2 -62q-8 -16 -31 -37q-18 -16 -22 -22q-74 -98 -82 -228q-2 -41 2 -174 q4 -121 -6 -182q-14 -100 -68 -158q-63 -70 -184 -84q-12 -2 -22.5 6.5t-12.5 20.5t6 22.5t20 12.5q98 12 148 63q41 45 53 127q8 53 4 170q-4 135 -2 180q10 147 94 261q8 10 31 30q14 12 19 21v2q-4 6 -15 12q-6 2 -20 6q-14 6 -23 10q-72 33 -96 117q-27 90 -16 242 q2 23 6 63.5t6 55.5q4 66 4 108q-2 104 -49 152q-61 57 -217 51q-14 0 -23.5 8t-9.5 21.5z" />
<glyph unicode="~" horiz-adv-x="1300" d="M125 602q59 92 149 152q113 74 215 49q35 -10 75 -46t50 -42q150 -84 232 -82q92 4 196 115q20 23 43 2t2 -43q-121 -131 -239 -136q-98 -2 -262 91q-18 10 -64 51q-27 25 -49 28q-76 20 -166 -41q-78 -51 -133 -131q-16 -27 -41.5 -9.5t-7.5 42.5z" />
<glyph unicode="&#xad;" d="M28 596q0 31 31 31h365q31 0 31 -31t-31 -31h-365q-31 0 -31 31z" />
<glyph unicode="&#x2000;" horiz-adv-x="856" />
<glyph unicode="&#x2001;" horiz-adv-x="1712" />
<glyph unicode="&#x2002;" horiz-adv-x="856" />
<glyph unicode="&#x2003;" horiz-adv-x="1712" />
<glyph unicode="&#x2004;" horiz-adv-x="570" />
<glyph unicode="&#x2005;" horiz-adv-x="428" />
<glyph unicode="&#x2006;" horiz-adv-x="285" />
<glyph unicode="&#x2007;" horiz-adv-x="285" />
<glyph unicode="&#x2008;" horiz-adv-x="214" />
<glyph unicode="&#x2009;" horiz-adv-x="342" />
<glyph unicode="&#x200a;" horiz-adv-x="95" />
<glyph unicode="&#x2010;" d="M28 596q0 31 31 31h365q31 0 31 -31t-31 -31h-365q-31 0 -31 31z" />
<glyph unicode="&#x2011;" d="M28 596q0 31 31 31h365q31 0 31 -31t-31 -31h-365q-31 0 -31 31z" />
<glyph unicode="&#x2012;" d="M28 596q0 31 31 31h365q31 0 31 -31t-31 -31h-365q-31 0 -31 31z" />
<glyph unicode="&#x2013;" horiz-adv-x="1256" d="M28 596q0 31 74 31h876q74 0 74 -31t-74 -31h-876q-74 0 -74 31z" />
<glyph unicode="&#x2014;" horiz-adv-x="2280" d="M28 596q0 31 149 31h1750q149 0 149 -31t-149 -31h-1750q-149 0 -149 31z" />
<glyph unicode="&#x2018;" horiz-adv-x="532" d="M129 1047q37 209 139 530q4 10 15.5 16t22.5 2t17.5 -15.5t2.5 -23.5q-98 -315 -136 -522q-2 -12 -12 -19t-23.5 -5t-20.5 12t-5 25z" />
<glyph unicode="&#x2019;" horiz-adv-x="520" d="M84 1016q14 78 40 157.5t73 200.5l59 148q4 12 15.5 17t23.5 1t17 -15.5t1 -23.5q-12 -35 -59 -151.5t-72 -192.5q-23 -72 -37 -153q-2 -12 -12 -19.5t-23.5 -5.5t-20.5 12t-5 25z" />
<glyph unicode="&#x201c;" horiz-adv-x="761" d="M74 975q25 92 96 297q66 188 90 291q4 12 14.5 19t22.5 4t19.5 -13.5t5.5 -22.5q-27 -109 -93 -299q-76 -223 -94 -293q-4 -12 -15 -18t-23.5 -3t-18.5 14.5t-4 23.5zM328 1020q27 102 82 266q84 248 88 262q2 12 13 18.5t23.5 3.5t18.5 -14.5t2 -23.5q-14 -57 -86 -264 q-55 -162 -80 -264q-4 -12 -15.5 -18.5t-23.5 -3.5t-18 14.5t-4 23.5z" />
<glyph unicode="&#x201d;" horiz-adv-x="772" d="M76 1038.5q4 12.5 22 61.5l25 67l20 62q16 43 25 65l18 62q12 41 19 69l16 62q8 33 12 65q2 12 12.5 19.5t24 5.5t20.5 -12.5t5 -24.5q-6 -37 -14.5 -73.5t-22.5 -82.5l-20 -69q-8 -27 -27 -82l-23 -68l-28 -80q-25 -63 -27 -67q-4 -12 -15.5 -17.5t-23.5 -1t-17 15.5 t-1 23.5zM348 1044q27 68 74 254q43 170 88 261q12 27 39.5 13.5t13.5 -42.5q-41 -82 -82 -246q-49 -199 -75 -264q-4 -10 -16.5 -15.5t-24 -1t-16.5 16.5t-1 24z" />
<glyph unicode="&#x202f;" horiz-adv-x="342" />
<glyph unicode="&#x205f;" horiz-adv-x="428" />
<glyph unicode="&#x25fc;" horiz-adv-x="1025" d="M0 1025h1025v-1025h-1025v1025z" />
</font>
</defs>
</svg>
