<?xml version="1.0" encoding="utf-8"?>
<!-- Generator: Adobe Illustrator 18.1.0, SVG Export Plug-In . SVG Version: 6.00 Build 0)  -->
<svg version="1.1" id="Layer_1" xmlns="http://www.w3.org/2000/svg" xmlns:xlink="http://www.w3.org/1999/xlink" x="0px" y="0px"
	 viewBox="0 0 220 220" enable-background="new 0 0 220 220" xml:space="preserve">
<g id="_x38_ghHQU.tif">
	<g>
		<path fill="#7FDBFF" d="M196.2,175.6c-6.1,5.1-13.4,10.1-21.6,10.7c-10.1,0.7-20.7-0.5-30.8-0.9c-5-0.2-10.3-0.8-15.3-0.2
			c-6.4,0.8-5.6,4.5-9.5,8.2c-3.5,3.3-8.7,1.9-13.3,1.8c-3.9-0.1-8.4,0.4-12.2-0.7c3.7-2.2,12.2-2.5,10.7-9.1
			c-1.1-4.7-8.3-3.6-12.1-3.9c-11.8-1-23.9-5.6-33.1-13.3c-9.6-8-14.5-21.7-17.4-33.4c-1.1-4.5-1.8-12.1-7-13.6
			c-7.4-2.2-7.1,7.1-6.6,11.6c0.7,6.9,8.3,29.9-1.5,32.9c-5.3,1.7-10.6-3.9-14.4-6.6c-1-0.7-6.9-2.7-7.5-3.6c-2-3.4,7-1.3,8.3-0.9
			c5.8,1.5,8.9-0.7,9.4-7.2c0.4-5.9-3.3-10.9-6.7-15.3c-3.9-5.1-7.7-9.6-7.5-16.4c0.1-2.7,0.9-5.2,2.5-7.4c1.6-2.1,4.4-2.4,5.8-4
			c1.6-1.9,0.4-1.6-1.5-3.6c-2.1-2.2-4-5-5.3-7.7C7.3,87.4,7,80.5,10,75.2c2.7-4.9,9.8-8.1,8.8-14.6c-1.1-7.6-9.3-4-14.1-3.3
			c0-2.7,2.2-2.2,4.4-3.6c2-1.3,3.5-3.1,5.4-4.5c3.5-2.6,8.7-5.6,12.8-2.7c7.6,5.1-4.6,21-3.5,28.3c0.6,4.3,4.3,9.1,9.1,8.3
			c5.7-1,6.9-8,9.1-12.2c4.6-8.9,9.2-19.1,16.9-25.8c8.8-7.6,19-11.2,30.3-13.2c4.2-0.7,12-0.4,15.1-3.6c4.3-4.4-2.4-10.4-6-12.5
			c-5.6-3.2-12.1-4.6-18.2-6.5c-2.8-0.9-8.2-1.6-3.4-2.9c3.7-1.1,9.1,0.1,12.9,0.2c5.4,0.2,10.9,0,16.3,0.5
			c8.4,0.7,12.2,6.3,17.2,12.4c4.7,5.7,11.4,9.3,19.3,10.5c17.7,2.6,32.8,5.9,46.7,17.6c12.2,10.3,13.5,24.3,18,38.2
			c2.4,7.5,4.3,14.9,6.6,22.5c2.5,8.1,4.7,16.5,5.8,25c0.8,6.6,1.8,14.4-5.5,17.9c-5,2.4-11.5,1.3-16.8,1.1
			c-5.3-0.3-10.6-0.4-15.9-0.4c-3.3,0-17.7-2.1-19.6,1c-2.4,3.8,6.8,5.9,9.5,7.1c5.8,2.6,11.8,4.9,17.6,7.3
			C191.6,168.4,202.7,171.5,196.2,175.6c-0.1-0.4-0.4-0.9-0.7-0.5C195.8,175.3,196,175.5,196.2,175.6
			C195.6,176.1,196,175.5,196.2,175.6z M110.7,97c1.5,20,15.3,37.2,35.2,41.6c19.8,4.4,39.1-5.5,49.2-22.5
			c18.4-30.8-10.2-69.1-44.6-65.1C127.4,53.6,110.2,73.9,110.7,97C110.8,97.9,110.6,93.2,110.7,97z M209.4,102.4
			C209.1,102.2,208.8,103.2,209.4,102.4C209.3,102.4,209.3,102.6,209.4,102.4z"/>
		<path fill="#7FDBFF" d="M196.2,175.6c-0.2-0.2-0.5-0.3-0.7-0.5c0.1-0.1,0.1-0.1,0.2-0.2C196.1,174.9,196.2,175.3,196.2,175.6
			C196.2,175.6,196.2,175.6,196.2,175.6z"/>
		<path fill="#7FDBFF" d="M209.4,102.4c-0.1,0.1-0.2,0.2-0.2,0.3c0,0-0.1,0-0.1-0.1c0.1-0.1,0.1-0.2,0.2-0.3
			C209.3,102.4,209.3,102.4,209.4,102.4z"/>
	</g>
</g>
</svg>
